<?xml version="1.0" encoding="utf-8"?>
<!-- Generator: Adobe Illustrator 19.2.1, SVG Export Plug-In . SVG Version: 6.00 Build 0)  -->
<svg version="1.1" id="Layer_1" xmlns="http://www.w3.org/2000/svg" xmlns:xlink="http://www.w3.org/1999/xlink" x="0px" y="0px"
	 viewBox="0 0 18 18" style="enable-background:new 0 0 18 18;" xml:space="preserve">
<style type="text/css">
	.st0{fill:#FFFFFF;}
</style>
<g>
	<path class="st0" d="M17.9,4c-0.1-0.1-0.2-0.2-0.4-0.2H4.3L3.7,1.6c0-0.3-0.3-0.4-0.5-0.4H0.5C0.2,1.2,0,1.4,0,1.7s0.2,0.5,0.5,0.5
		h2.3l0.6,2.2l0,0l2,7.8c0.1,0.2,0.3,0.4,0.5,0.4h9.5c0.2,0,0.4-0.2,0.5-0.4l2-7.8C18,4.3,18,4.1,17.9,4z M8.2,11.6H6.3L5.9,10h2.2
		L8.2,11.6L8.2,11.6z M8.2,9H5.6L5.2,7.4h2.9C8.2,7.4,8.2,9,8.2,9z M8.2,6.4H5L4.6,4.8h3.6V6.4z M12.2,11.6h-3V10h3V11.6z M12.2,9
		h-3V7.4h3V9z M12.2,6.4h-3V4.8h3V6.4z M15,11.6h-1.8V10h2.2L15,11.6z M15.7,9h-2.5V7.4h2.9L15.7,9z M16.4,6.4h-3.2V4.8h3.6
		L16.4,6.4z"/>
	<path class="st0" d="M7.3,13c-1,0-1.9,0.8-1.9,1.9c0,1,0.8,1.9,1.9,1.9c1,0,1.9-0.9,1.9-1.9S8.3,13,7.3,13z M7.3,15.8
		c-0.5,0-0.9-0.4-0.9-0.9S6.8,14,7.3,14s0.9,0.4,0.9,0.9C8.2,15.4,7.8,15.8,7.3,15.8z"/>
	<path class="st0" d="M14.1,13c-1,0-1.9,0.8-1.9,1.9c0,1,0.8,1.9,1.9,1.9c1,0,1.9-0.9,1.9-1.9S15.1,13,14.1,13z M14.1,15.8
		c-0.5,0-0.9-0.4-0.9-0.9s0.4-0.9,0.9-0.9s0.9,0.4,0.9,0.9C14.9,15.4,14.5,15.8,14.1,15.8z"/>
</g>
</svg>
